<svg width="36" height="36" viewBox="0 0 36 36" fill="none" xmlns="http://www.w3.org/2000/svg">
<path opacity="0.3" fill-rule="evenodd" clip-rule="evenodd" d="M10.8843 28.3939L8.96833 30.7024C5.21539 27.5876 3 22.9732 3 18.0002C3 13.034 5.20923 8.4253 8.95328 5.31042L10.872 7.61665C7.8059 10.1675 6 13.9348 6 18.0002C6 22.0712 7.81094 25.8432 10.8843 28.3939ZM25.1157 28.3939L27.0317 30.7024C30.7846 27.5876 33 22.9732 33 18.0002C33 13.034 30.7908 8.4253 27.0467 5.31042L25.128 7.61665C28.1941 10.1675 30 13.9348 30 18.0002C30 22.0712 28.1891 25.8432 25.1157 28.3939ZM21.2677 23.79L23.1763 26.1046C25.5793 24.1231 27 21.1762 27 18.0002C27 14.8345 25.5886 11.8963 23.1992 9.91461L21.2841 12.2238C22.9934 13.6414 24 15.737 24 18.0002C24 20.2708 22.9868 22.3725 21.2677 23.79ZM12.8237 26.1046L14.7323 23.79C13.0132 22.3725 12 20.2708 12 18.0002C12 15.737 13.0066 13.6414 14.7159 12.2238L12.8008 9.91461C10.4114 11.8963 9 14.8345 9 18.0002C9 21.1762 10.4207 24.1231 12.8237 26.1046Z" fill="#99EFD0"/>
<path fill-rule="evenodd" clip-rule="evenodd" d="M18 21.0001C19.6569 21.0001 21 19.657 21 18.0001C21 16.3433 19.6569 15.0001 18 15.0001C16.3431 15.0001 15 16.3433 15 18.0001C15 19.657 16.3431 21.0001 18 21.0001Z" fill="#99EFD0"/>
</svg>
