<svg width="36" height="36" viewBox="0 0 36 36" fill="none" xmlns="http://www.w3.org/2000/svg">
<path opacity="0.3" fill-rule="evenodd" clip-rule="evenodd" d="M23.6764 21.0001H30V3.00012C25.0294 3.00012 21 7.02956 21 12.0001V18.2575L11.7426 9.00012C9.3995 11.3433 9.3995 15.1423 11.7426 17.4854L19.4669 25.2096L23.6764 21.0001Z" fill="#99EFD0"/>
<path fill-rule="evenodd" clip-rule="evenodd" d="M6.5 18.0001C3.73858 18.0001 1.5 20.2387 1.5 23.0001V26.5001C1.5 29.2615 3.73858 31.5001 6.5 31.5001H29.5C32.2614 31.5001 34.5 29.2615 34.5 26.5001V23.0001C34.5 20.2387 32.2614 18.0001 29.5 18.0001H6.5ZM31.5 24.7501C31.5 25.9928 30.4926 27.0001 29.25 27.0001C28.0074 27.0001 27 25.9928 27 24.7501C27 23.5075 28.0074 22.5001 29.25 22.5001C30.4926 22.5001 31.5 23.5075 31.5 24.7501Z" fill="#99EFD0"/>
</svg>
